<svg width="177" height="41" viewBox="0 0 177 41" fill="none" xmlns="http://www.w3.org/2000/svg">
<path fill-rule="evenodd" clip-rule="evenodd" d="M8.55273 4.09787C7.12207 5.09823 5.82837 6.28098 4.70532 7.6124C9.29462 7.18633 15.1252 7.88204 21.8944 11.2667C29.123 14.8809 34.9438 15.0031 38.9948 14.2217C38.6272 13.1088 38.1644 12.0392 37.6163 11.0224C32.979 11.5115 27.034 10.8641 20.1056 7.39998C15.706 5.20018 11.8278 4.29401 8.55273 4.09787ZM34.9074 7.16665C31.2453 3.075 25.9234 0.5 20 0.5C18.2605 0.5 16.5727 0.722107 14.9637 1.13948C17.1429 1.73409 19.4579 2.60399 21.8944 3.82227C26.967 6.35853 31.3464 7.17516 34.9074 7.16665ZM39.8609 18.1281C34.9669 19.0945 28.2088 18.896 20.1056 14.8444C12.53 11.0566 6.50043 11.1043 2.4339 12.008C2.224 12.0546 2.01904 12.1036 1.81903 12.1546C1.28662 13.3125 0.861634 14.5301 0.556702 15.7945C0.882386 15.7075 1.21893 15.6248 1.56616 15.5476C6.49957 14.4513 13.4701 14.4989 21.8944 18.7111C29.4701 22.4989 35.4996 22.4512 39.5662 21.5475C39.7055 21.5166 39.8428 21.4846 39.9778 21.4516C39.9926 21.1363 40 20.819 40 20.5C40 19.6975 39.9528 18.906 39.8609 18.1281ZM39.3248 25.6723C34.4783 26.5196 27.917 26.1944 20.1056 22.2888C12.53 18.501 6.50043 18.5487 2.4339 19.4524C1.53125 19.6529 0.719239 19.8972 0.00293 20.1551C0.000977 20.2698 0 20.3848 0 20.5C0 31.5457 8.95429 40.5 20 40.5C29.2571 40.5 37.0453 34.2109 39.3248 25.6723Z" fill="url(#paint0_linear_1156_734)"/>
<path d="M64.52 24.46L68.576 12.484H72.608L66.392 29.5H62.48L56.24 12.484H60.416L64.52 24.46ZM72.1927 26.212C72.1927 24.1 73.7527 22.9 75.7207 22.612L78.5287 22.18C79.1767 22.084 79.3927 21.772 79.3927 21.364C79.3927 20.668 78.7927 20.068 77.6407 20.068C76.3687 20.068 75.6727 20.932 75.6007 21.82L72.4327 21.172C72.5767 19.468 74.1607 17.212 77.6647 17.212C81.5287 17.212 82.9447 19.372 82.9447 21.82V27.652C82.9447 28.588 83.0647 29.38 83.0887 29.5H79.8007C79.7767 29.404 79.6807 28.972 79.6807 28.156C79.0567 29.164 77.9047 29.836 76.3207 29.836C73.7047 29.836 72.1927 28.108 72.1927 26.212ZM77.2087 27.196C78.2887 27.196 79.3927 26.668 79.3927 24.82V24.292L77.1367 24.652C76.3687 24.772 75.7927 25.132 75.7927 25.972C75.7927 26.596 76.2007 27.196 77.2087 27.196ZM91.4399 20.572C89.9279 20.572 88.7039 21.628 88.7039 23.548C88.7039 25.444 89.9759 26.5 91.4879 26.5C92.9039 26.5 93.6959 25.612 93.9599 24.724L97.1759 25.708C96.6479 27.796 94.6799 29.86 91.4879 29.86C87.9359 29.86 85.0799 27.244 85.0799 23.548C85.0799 19.828 87.8639 17.212 91.3679 17.212C94.6559 17.212 96.5759 19.228 97.1039 21.364L93.8399 22.348C93.5759 21.436 92.8559 20.572 91.4399 20.572ZM98.6536 26.212C98.6536 24.1 100.214 22.9 102.182 22.612L104.99 22.18C105.638 22.084 105.854 21.772 105.854 21.364C105.854 20.668 105.254 20.068 104.102 20.068C102.83 20.068 102.134 20.932 102.062 21.82L98.8936 21.172C99.0376 19.468 100.622 17.212 104.126 17.212C107.99 17.212 109.406 19.372 109.406 21.82V27.652C109.406 28.588 109.526 29.38 109.55 29.5H106.262C106.238 29.404 106.142 28.972 106.142 28.156C105.518 29.164 104.366 29.836 102.782 29.836C100.166 29.836 98.6536 28.108 98.6536 26.212ZM103.67 27.196C104.75 27.196 105.854 26.668 105.854 24.82V24.292L103.598 24.652C102.83 24.772 102.254 25.132 102.254 25.972C102.254 26.596 102.662 27.196 103.67 27.196ZM119.056 17.572H122.92L125.248 24.652L127.24 17.572H130.816L127.12 29.5H123.496L120.904 21.796L118.36 29.5H114.664L110.92 17.572H114.712L116.704 24.628L119.056 17.572ZM137.799 26.5C139.191 26.5 140.487 25.54 140.487 23.524C140.487 21.508 139.191 20.572 137.799 20.572C136.431 20.572 135.111 21.508 135.111 23.524C135.111 25.516 136.431 26.5 137.799 26.5ZM137.799 17.212C141.375 17.212 144.135 19.828 144.135 23.524C144.135 27.22 141.375 29.86 137.799 29.86C134.247 29.86 131.463 27.22 131.463 23.524C131.463 19.828 134.247 17.212 137.799 17.212ZM154.067 17.572V21.172C153.659 21.076 153.275 21.052 152.915 21.052C151.451 21.052 150.131 21.916 150.131 24.292V29.5H146.483V17.572H150.011V19.18C150.635 17.836 152.147 17.452 153.107 17.452C153.467 17.452 153.827 17.5 154.067 17.572ZM159.928 29.5H156.28V12.124H159.928V29.5ZM174.883 12.124V27.364C174.883 28.444 174.955 29.236 174.979 29.5H171.475C171.451 29.356 171.379 28.828 171.379 28.348C170.827 29.164 169.627 29.764 168.187 29.764C164.827 29.764 162.283 27.172 162.283 23.5C162.283 19.948 164.683 17.284 168.067 17.284C170.107 17.284 170.995 18.052 171.283 18.508V12.124H174.883ZM165.955 23.524C165.955 25.492 167.227 26.5 168.643 26.5C170.059 26.5 171.331 25.492 171.331 23.524C171.331 21.532 170.059 20.572 168.643 20.572C167.227 20.572 165.955 21.532 165.955 23.524Z" fill="#191825"/>
<defs>
<linearGradient id="paint0_linear_1156_734" x1="36" y1="43.7" x2="-3.73321" y2="36.0931" gradientUnits="userSpaceOnUse">
<stop stop-color="#5D50C6"/>
<stop offset="1" stop-color="#F85E9F"/>
</linearGradient>
</defs>
</svg>
